# 3ds Max Wavefront OBJ Exporter v0.97b - (c)2007 guruware
# File Created: 22.11.2015 16:38:48

mtllib grass_green2.mtl

#
# object Box001
#

v  -8.0000 0.0000 8.2596
v  -8.0000 0.0000 -7.7404
v  8.0000 0.0000 -7.7404
v  8.0000 0.0000 8.2596
v  -8.0000 16.0000 8.2596
v  8.0000 16.0000 8.2596
v  8.0000 16.0000 -7.7404
v  -8.0000 16.0000 -7.7404
# 8 vertices

vn 0.0000 -1.0000 -0.0000
vn 0.0000 1.0000 -0.0000
vn 0.0000 0.0000 1.0000
vn 1.0000 0.0000 -0.0000
vn 0.0000 0.0000 -1.0000
vn -1.0000 0.0000 -0.0000
# 6 vertex normals

vt 0.3333 0.6667 0.0000
vt 0.3333 0.3333 0.0000
vt 0.6667 0.3333 0.0000
vt 0.6667 0.6667 0.0000
vt 0.0000 0.6667 0.0000
vt 0.3333 1.0000 0.0000
vt 0.0000 1.0000 0.0000
vt 0.3333 0.0000 0.0000
vt 0.6667 0.0000 0.0000
vt 1.0000 0.0000 0.0000
vt 1.0000 0.3333 0.0000
vt 0.0000 0.3333 0.0000
vt 0.0000 0.0000 0.0000
# 13 texture coords

g Box001
usemtl 01___Default
s 2
f 1/1/1 2/2/1 3/3/1 4/4/1 
s 4
f 5/5/2 6/1/2 7/6/2 8/7/2 
s 8
f 1/8/3 4/9/3 6/3/3 5/2/3 
s 16
f 4/9/4 3/10/4 7/11/4 6/3/4 
s 32
f 3/12/5 2/2/5 8/1/5 7/5/5 
s 64
f 2/13/6 1/8/6 5/2/6 8/12/6 
# 6 polygons

